name C:/MyDriveSym/Projects/mobilecap/Data\Session20210813_0001\mocap\ForceDataProcessed\DJAsym1_forces.mot
datacolumns 28
datarows 20
range 2.14450000 2.15400000
endheader 
time	R_ground_force_vx	R_ground_force_vy	R_ground_force_vz	R_ground_force_px	R_ground_force_py	R_ground_force_pz	R_ground_torque_x	R_ground_torque_y	R_ground_torque_z	L_ground_force_vx	L_ground_force_vy	L_ground_force_vz	L_ground_force_px	L_ground_force_py	L_ground_force_pz	L_ground_torque_x	L_ground_torque_y	L_ground_torque_z	3_ground_force_vx	3_ground_force_vy	3_ground_force_vz	3_ground_force_px	3_ground_force_py	3_ground_force_pz	3_ground_torque_x	3_ground_torque_y	3_ground_torque_z	
          2.14450000	         -4.78700800	        791.86884700	        -42.58069900	         -0.08832100	          0.00600000	         -0.37526200	          0.00000000	          0.91106400	          0.00000000	         17.50100100	        721.95404700	        185.95803300	         -0.12094400	          0.00600000	         -0.90544200	          0.00000000	         -2.89155500	          0.00000000	          0.00000000	          0.00000000	          0.00000000	          0.00000000	          0.00000000	          0.00000000	          0.00000000	          0.00000000	          0.00000000	
          2.14500000	         -4.88854200	        792.53585900	        -42.34388100	         -0.08829800	          0.00600000	         -0.37525300	          0.00000000	          0.89220900	          0.00000000	         17.64310900	        723.89682300	        187.02536100	         -0.12095400	          0.00600000	         -0.90554600	          0.00000000	         -2.93010900	          0.00000000	          0.00000000	          0.00000000	          0.00000000	          0.00000000	          0.00000000	          0.00000000	          0.00000000	          0.00000000	          0.00000000	
          2.14550000	         -4.98895800	        793.18114500	        -42.10471700	         -0.08827600	          0.00600000	         -0.37524200	          0.00000000	          0.87339600	          0.00000000	         17.75904700	        725.79929600	        188.08517900	         -0.12096300	          0.00600000	         -0.90565000	          0.00000000	         -2.96830000	          0.00000000	          0.00000000	          0.00000000	          0.00000000	          0.00000000	          0.00000000	          0.00000000	          0.00000000	          0.00000000	          0.00000000	
          2.14600000	         -5.08819600	        793.80445200	        -41.86333400	         -0.08825300	          0.00600000	         -0.37523100	          0.00000000	          0.85463100	          0.00000000	         17.84911300	        727.66092000	        189.13653600	         -0.12097200	          0.00600000	         -0.90575400	          0.00000000	         -3.00606800	          0.00000000	          0.00000000	          0.00000000	          0.00000000	          0.00000000	          0.00000000	          0.00000000	          0.00000000	          0.00000000	          0.00000000	
          2.14650000	         -5.18625900	        794.40557600	        -41.61984700	         -0.08822900	          0.00600000	         -0.37522000	          0.00000000	          0.83592100	          0.00000000	         17.91370700	        729.48105000	        190.17843800	         -0.12097900	          0.00600000	         -0.90585800	          0.00000000	         -3.04335200	          0.00000000	          0.00000000	          0.00000000	          0.00000000	          0.00000000	          0.00000000	          0.00000000	          0.00000000	          0.00000000	          0.00000000	
          2.14700000	         -5.28321100	        794.98433600	        -41.37436200	         -0.08820600	          0.00600000	         -0.37520700	          0.00000000	          0.81727600	          0.00000000	         17.95332300	        731.25894900	        191.20985500	         -0.12098600	          0.00600000	         -0.90596200	          0.00000000	         -3.08009500	          0.00000000	          0.00000000	          0.00000000	          0.00000000	          0.00000000	          0.00000000	          0.00000000	          0.00000000	          0.00000000	          0.00000000	
          2.14750000	         -5.37918200	        795.54056900	        -41.12696700	         -0.08818200	          0.00600000	         -0.37519400	          0.00000000	          0.79870400	          0.00000000	         17.96854100	        732.99376900	        192.22972500	         -0.12099200	          0.00600000	         -0.90606600	          0.00000000	         -3.11624000	          0.00000000	          0.00000000	          0.00000000	          0.00000000	          0.00000000	          0.00000000	          0.00000000	          0.00000000	          0.00000000	          0.00000000	
          2.14800000	         -5.47436200	        796.07415900	        -40.87773800	         -0.08815800	          0.00600000	         -0.37518000	          0.00000000	          0.78021500	          0.00000000	         17.96001700	        734.68455300	        193.23696000	         -0.12099700	          0.00600000	         -0.90616900	          0.00000000	         -3.15172900	          0.00000000	          0.00000000	          0.00000000	          0.00000000	          0.00000000	          0.00000000	          0.00000000	          0.00000000	          0.00000000	          0.00000000	
          2.14850000	         -5.56899800	        796.58506500	        -40.62673900	         -0.08813300	          0.00600000	         -0.37516600	          0.00000000	          0.76181700	          0.00000000	         17.92847000	        736.33023600	        194.23045000	         -0.12100100	          0.00600000	         -0.90627300	          0.00000000	         -3.18650600	          0.00000000	          0.00000000	          0.00000000	          0.00000000	          0.00000000	          0.00000000	          0.00000000	          0.00000000	          0.00000000	          0.00000000	
          2.14900000	         -5.66339200	        797.07332500	        -40.37402000	         -0.08810900	          0.00600000	         -0.37515100	          0.00000000	          0.74351800	          0.00000000	         17.87468300	        737.92966000	        195.20906400	         -0.12100400	          0.00600000	         -0.90637700	          0.00000000	         -3.22051900	          0.00000000	          0.00000000	          0.00000000	          0.00000000	          0.00000000	          0.00000000	          0.00000000	          0.00000000	          0.00000000	          0.00000000	
          2.14950000	         -5.75789400	        797.53903000	        -40.11961000	         -0.08808400	          0.00600000	         -0.37513500	          0.00000000	          0.72532700	          0.00000000	         17.79951000	        739.48158700	        196.17165600	         -0.12100500	          0.00600000	         -0.90648100	          0.00000000	         -3.25372100	          0.00000000	          0.00000000	          0.00000000	          0.00000000	          0.00000000	          0.00000000	          0.00000000	          0.00000000	          0.00000000	          0.00000000	
          2.15000000	         -5.85290000	        797.98228000	        -39.86351400	         -0.08805900	          0.00600000	         -0.37511800	          0.00000000	          0.70725200	          0.00000000	         17.70388100	        740.98469500	        197.11706600	         -0.12100600	          0.00600000	         -0.90658500	          0.00000000	         -3.28607300	          0.00000000	          0.00000000	          0.00000000	          0.00000000	          0.00000000	          0.00000000	          0.00000000	          0.00000000	          0.00000000	          0.00000000	
          2.15050000	         -5.94884600	        798.40317500	        -39.60572500	         -0.08803400	          0.00600000	         -0.37510100	          0.00000000	          0.68929900	          0.00000000	         17.58878700	        742.43758400	        198.04413900	         -0.12100500	          0.00600000	         -0.90668900	          0.00000000	         -3.31754000	          0.00000000	          0.00000000	          0.00000000	          0.00000000	          0.00000000	          0.00000000	          0.00000000	          0.00000000	          0.00000000	          0.00000000	
          2.15100000	         -6.04619800	        798.80180000	        -39.34622100	         -0.08800800	          0.00600000	         -0.37508300	          0.00000000	          0.67147500	          0.00000000	         17.45527900	        743.83877600	        198.95172900	         -0.12100200	          0.00600000	         -0.90679300	          0.00000000	         -3.34809700	          0.00000000	          0.00000000	          0.00000000	          0.00000000	          0.00000000	          0.00000000	          0.00000000	          0.00000000	          0.00000000	          0.00000000	
          2.15150000	         -6.14544700	        799.17822300	        -39.08497900	         -0.08798300	          0.00600000	         -0.37506500	          0.00000000	          0.65378700	          0.00000000	         17.30446000	        745.18671100	        199.83868500	         -0.12099900	          0.00600000	         -0.90689800	          0.00000000	         -3.37771800	          0.00000000	          0.00000000	          0.00000000	          0.00000000	          0.00000000	          0.00000000	          0.00000000	          0.00000000	          0.00000000	          0.00000000	
          2.15200000	         -6.24709600	        799.53250400	        -38.82198300	         -0.08795700	          0.00600000	         -0.37504600	          0.00000000	          0.63624600	          0.00000000	         17.13748700	        746.47974700	        200.70383600	         -0.12099400	          0.00600000	         -0.90700300	          0.00000000	         -3.40637600	          0.00000000	          0.00000000	          0.00000000	          0.00000000	          0.00000000	          0.00000000	          0.00000000	          0.00000000	          0.00000000	          0.00000000	
          2.15250000	         -6.35164500	        799.86472500	        -38.55722000	         -0.08793100	          0.00600000	         -0.37502600	          0.00000000	          0.61886200	          0.00000000	         16.95555900	        747.71617600	        201.54598800	         -0.12098700	          0.00600000	         -0.90710800	          0.00000000	         -3.43404000	          0.00000000	          0.00000000	          0.00000000	          0.00000000	          0.00000000	          0.00000000	          0.00000000	          0.00000000	          0.00000000	          0.00000000	
          2.15300000	         -6.45958300	        800.17501600	        -38.29066900	         -0.08790500	          0.00600000	         -0.37500600	          0.00000000	          0.60164600	          0.00000000	         16.75991600	        748.89427000	        202.36392500	         -0.12097900	          0.00600000	         -0.90721300	          0.00000000	         -3.46067900	          0.00000000	          0.00000000	          0.00000000	          0.00000000	          0.00000000	          0.00000000	          0.00000000	          0.00000000	          0.00000000	          0.00000000	
          2.15350000	         -6.57137600	        800.46356200	        -38.02229800	         -0.08787800	          0.00600000	         -0.37498600	          0.00000000	          0.58460400	          0.00000000	         16.55183200	        750.01233000	        203.15642900	         -0.12097000	          0.00600000	         -0.90731900	          0.00000000	         -3.48625700	          0.00000000	          0.00000000	          0.00000000	          0.00000000	          0.00000000	          0.00000000	          0.00000000	          0.00000000	          0.00000000	          0.00000000	
          2.15400000	         -6.68745700	        800.73060500	        -37.75206700	         -0.08785100	          0.00600000	         -0.37496500	          0.00000000	          0.56774000	          0.00000000	         16.33260400	        751.06871100	        203.92228600	         -0.12095900	          0.00600000	         -0.90742500	          0.00000000	         -3.51073700	          0.00000000	          0.00000000	          0.00000000	          0.00000000	          0.00000000	          0.00000000	          0.00000000	          0.00000000	          0.00000000	          0.00000000	
